<?xml version="1.0" encoding="UTF-8"?>
<svg id="Ebene_1" data-name="Ebene 1" xmlns="http://www.w3.org/2000/svg" viewBox="0 0 160 160">
  <defs>
    <style>
      .cls-1 {
        fill: #5e1abd;
      }
    </style>
  </defs>
  <g id="Maskotchen">
    <path class="cls-1" d="M123.37,1.92c-.83-1.89-1.35.76-2.55,4.89s-1.24,7.51-2.27,12.22c-.59,2.73-4.99,20.88-9.29,24.16-4.3,3.28-5.26,10.45-25.61,11.68-20.35,1.23-33.26,2.6-42.34-2.12-9.08-4.71-.28,8.9,17.55,9.01,12.09.08,22.31-.06,32.78,1.16,3.63.42,5.74,1.16,7.92,4.3,2.19,3.14-1.5,11.27-11.54,12.57s-11.61,3-22.4,1.64c-10.79-1.37-20.15-3.76-26.63-1.91-6.49,1.84-6.42,3.89-6.42,3.89,0,0,12.22.41,19.87,2.53s27.39,4.92,33.67,4.71,8.24-1.81,10.59-1.98c2.65-.19-.76,1.58-4.86,20.96.1-.33.11-.68-4.15,14.24-.23.8-1.93,6.83-3.41,9.47-4.2,7.48-.55,7.51-1.84,15.3-1.06,6.34-2.44,10.06-2.44,10.06,0,0,4.68.55,7.2-4.98s27.56-81.76,27.56-81.76c0,0,2.65-9.51,2.97-18.87s5.06-28.73,5.34-30.44c1.16-6.93,1.28-9.56,1.52-11.15.97-6.5-1.23-9.58-1.23-9.58Z"/>
    <circle class="cls-1" cx="95.69" cy="37.82" r="10.45"/>
  </g>
</svg>